# xmcd
# 
# Track frame offsets:
#     150
#     17998
#     34111
#     51849
#     64591
#     81045
#     96728
#     110613
#     134976
#     157604
#     192151
#     205153
#     225564
#     243991
# 
# Disc length: 3655
# 
# Revision: 3
# Processed by: cddbd v1.5.2PL0 Copyright (c) Steve Scherf et al.
# Submitted via: fre:ac v1.0.17
# 
DISCID=be0e450e
DTITLE=Various Artist - Life is Beautiful
DYEAR=2005
DGENRE=Classical
TTITLE0=Boccherini - Minuet
TTITLE1=Hoffstetter  - Serenade
TTITLE2=Offenbach  - Barcarolle
TTITLE3=Bach  - Jesu, Joy of Man's Desiring
TTITLE4=Handel  - Courante
TTITLE5=Tchaikovsky -  Love Theme
TTITLE6=Italiania - Resighi
TTITLE7=Debussy - Clair de Lune
TTITLE8=Waldteufel  - The Skaters Waltz
TTITLE9=Borodin -  Nocturne
TTITLE10=Beethoven  - Fur Elise
TTITLE11=Vivaldi  - Concerto Alla Rustica
TTITLE12=Granados - Spanish Dance No.2
TTITLE13=Tchaikovsky  - Andante cantabile
EXTD=
EXTT0=
EXTT1=
EXTT2=
EXTT3=
EXTT4=
EXTT5=
EXTT6=
EXTT7=
EXTT8=
EXTT9=
EXTT10=
EXTT11=
EXTT12=
EXTT13=
PLAYORDER=
